<?xml version="1.0" encoding="utf-8"?>
<!-- Generator: Adobe Illustrator 27.2.0, SVG Export Plug-In . SVG Version: 6.00 Build 0)  -->
<svg version="1.1" xmlns="http://www.w3.org/2000/svg" xmlns:xlink="http://www.w3.org/1999/xlink" x="0px" y="0px"
	 viewBox="0 0 446.15 429.98" style="enable-background:new 0 0 446.15 429.98;" xml:space="preserve">
<g id="Layer_1">
</g>
<g id="Layer_2">
	<g>
		<path d="M389.86,295.54l-5.67-6.42l-29.44-33.37l-15.83-17.94l-0.06-0.07c33.19-1.3,59.71-28.6,59.71-62.12
			c0-17.17-6.97-32.71-18.22-43.96c-11.25-11.25-26.79-18.21-43.96-18.21h-96.65v35.12h96.64c14.94,0,27.05,12.11,27.05,27.05
			c0,14.95-12.11,27.06-27.05,27.06h-38.06v0.01h-58.58v121.54h35.12v-86.43h17.24l45.26,51.31l17.39,19.71l13.59,15.41h46.84
			L389.86,295.54z"/>
		<path d="M44.62,175.63L44.62,175.63c0,34.34,27.84,62.18,62.18,62.18h61.14c14.17,0,25.65,11.49,25.65,25.65v0
			c0,14.17-11.49,25.65-25.65,25.65H44.62v35.12h123.32c33.56,0,60.77-27.21,60.77-60.77v0c0-33.56-27.21-60.77-60.77-60.77h-61.13
			c-14.94,0-27.06-12.11-27.06-27.06v0c0-14.94,12.12-27.06,27.06-27.06h121.91v-35.12H106.8
			C72.46,113.45,44.62,141.29,44.62,175.63z"/>
	</g>
</g>
</svg>
